<svg width="111" height="102" viewBox="0 0 111 102" fill="none" xmlns="http://www.w3.org/2000/svg">
<rect x="1" y="1" width="109" height="100" stroke="#F0E9D2" stroke-width="2"/>
<path d="M19.3047 90.1562C18.2161 90.1562 17.3047 89.7734 16.5703 89.0078C15.8411 88.2422 15.4766 87.1458 15.4766 85.7188C15.4766 84.2865 15.8542 83.1901 16.6094 82.4297C17.3698 81.6641 18.3906 81.2812 19.6719 81.2812C20.3333 81.2812 21.0859 81.4141 21.9297 81.6797V79.2812C21.9297 79.1406 21.974 79.026 22.0625 78.9375C22.1562 78.8438 22.2708 78.7969 22.4062 78.7969H24.1484C24.2891 78.7969 24.4036 78.8438 24.4922 78.9375C24.5859 79.026 24.6328 79.1406 24.6328 79.2812V89.5234C24.6328 89.6589 24.5859 89.7734 24.4922 89.8672C24.4036 89.9557 24.2891 90 24.1484 90H22.6484C22.5078 90 22.3932 89.9557 22.3047 89.8672C22.2161 89.7734 22.1719 89.6589 22.1719 89.5234V89.2812C21.349 89.8646 20.3932 90.1562 19.3047 90.1562ZM20.2344 83.1719C19.5156 83.1719 19.0078 83.375 18.7109 83.7812C18.4141 84.1823 18.2656 84.8281 18.2656 85.7188C18.2656 86.6094 18.4062 87.2578 18.6875 87.6641C18.9688 88.0703 19.3906 88.2734 19.9531 88.2734C20.5208 88.2734 21.1797 88.0391 21.9297 87.5703V83.4844C21.2578 83.276 20.6927 83.1719 20.2344 83.1719ZM30.3934 89.0156C29.5914 88.2552 29.1903 87.1615 29.1903 85.7344C29.1903 84.3021 29.594 83.2031 30.4012 82.4375C31.2085 81.6667 32.3283 81.2812 33.7606 81.2812C35.1929 81.2812 36.3101 81.6562 37.1122 82.4062C37.9143 83.151 38.3153 84.2214 38.3153 85.6172V86.0625C38.3153 86.2031 38.2684 86.3203 38.1747 86.4141C38.0861 86.5026 37.9716 86.5469 37.8309 86.5469H31.9481C32.0002 87.1875 32.1825 87.6536 32.495 87.9453C32.8127 88.237 33.3179 88.3828 34.0106 88.3828C34.7033 88.3828 35.1773 88.2266 35.4325 87.9141C35.6877 87.6016 36.0028 87.4427 36.3778 87.4375H37.5419C37.6825 87.4375 37.7971 87.4844 37.8856 87.5781C37.9794 87.6667 38.0262 87.7812 38.0262 87.9219C38.0262 89.4167 36.6018 90.1615 33.7528 90.1562C32.3153 90.1562 31.1955 89.776 30.3934 89.0156ZM31.9325 84.8984H35.5653C35.5132 83.6693 34.9091 83.0547 33.7528 83.0547C32.6018 83.0547 31.995 83.6693 31.9325 84.8984ZM42.2322 85.5547V84.625C42.2322 84.4844 42.2765 84.3698 42.365 84.2812C42.4587 84.1875 42.5733 84.1406 42.7087 84.1406H48.5994C48.74 84.1406 48.8546 84.1875 48.9431 84.2812C49.0369 84.3698 49.0837 84.4844 49.0837 84.625V85.5547C49.0837 85.6953 49.0369 85.8099 48.9431 85.8984C48.8546 85.987 48.74 86.0312 48.5994 86.0312H42.7087C42.5681 86.0312 42.4535 85.987 42.365 85.8984C42.2765 85.8099 42.2322 85.6953 42.2322 85.5547ZM57.5553 88.3047L58.6256 88.2109H58.9147C59.0553 88.2109 59.1699 88.2552 59.2584 88.3438C59.3522 88.4323 59.3991 88.5469 59.3991 88.6875V89.5234C59.3991 89.638 59.3522 89.7422 59.2584 89.8359C59.1699 89.9245 59.0553 89.9792 58.9147 90C58.3834 90.1042 57.6907 90.1562 56.8366 90.1562C54.597 90.1562 53.4772 88.9844 53.4772 86.6406V79.2812C53.4772 79.1406 53.5215 79.026 53.61 78.9375C53.7038 78.8438 53.8183 78.7969 53.9538 78.7969H55.7038C55.8392 78.7969 55.9511 78.8438 56.0397 78.9375C56.1334 79.026 56.1803 79.1406 56.1803 79.2812V81.8906H58.36C58.4954 81.8906 58.6074 81.9349 58.6959 82.0234C58.7897 82.112 58.8366 82.2266 58.8366 82.3672V83.2969C58.8366 83.4375 58.7897 83.5521 58.6959 83.6406C58.6074 83.7292 58.4954 83.7734 58.36 83.7734H56.1803V86.6406C56.1803 87.1719 56.3053 87.5833 56.5553 87.875C56.8053 88.1615 57.1386 88.3047 57.5553 88.3047ZM64.4409 89.0156C63.6389 88.2552 63.2378 87.1615 63.2378 85.7344C63.2378 84.3021 63.6415 83.2031 64.4487 82.4375C65.256 81.6667 66.3758 81.2812 67.8081 81.2812C69.2404 81.2812 70.3576 81.6562 71.1597 82.4062C71.9618 83.151 72.3628 84.2214 72.3628 85.6172V86.0625C72.3628 86.2031 72.3159 86.3203 72.2222 86.4141C72.1336 86.5026 72.0191 86.5469 71.8784 86.5469H65.9956C66.0477 87.1875 66.23 87.6536 66.5425 87.9453C66.8602 88.237 67.3654 88.3828 68.0581 88.3828C68.7508 88.3828 69.2248 88.2266 69.48 87.9141C69.7352 87.6016 70.0503 87.4427 70.4253 87.4375H71.5894C71.73 87.4375 71.8446 87.4844 71.9331 87.5781C72.0269 87.6667 72.0737 87.7812 72.0737 87.9219C72.0737 89.4167 70.6493 90.1615 67.8003 90.1562C66.3628 90.1562 65.243 89.776 64.4409 89.0156ZM65.98 84.8984H69.6128C69.5607 83.6693 68.9566 83.0547 67.8003 83.0547C66.6493 83.0547 66.0425 83.6693 65.98 84.8984ZM81.0609 90.1562C79.6026 90.1562 78.4672 89.7812 77.6547 89.0312C76.8422 88.2812 76.4359 87.1797 76.4359 85.7266C76.4359 84.2682 76.8396 83.1641 77.6469 82.4141C78.4542 81.6589 79.5766 81.2812 81.0141 81.2812C82.4568 81.2812 83.5635 81.5104 84.3344 81.9688C85.1104 82.4271 85.4984 83.1042 85.4984 84C85.4984 84.1406 85.4516 84.2552 85.3578 84.3438C85.2693 84.4323 85.1547 84.4766 85.0141 84.4766H83.85C83.4958 84.4766 83.1964 84.2865 82.9516 83.9062C82.6443 83.4167 82.1 83.1719 81.3187 83.1719C80.5427 83.1719 79.9984 83.3724 79.6859 83.7734C79.3786 84.1693 79.225 84.8177 79.225 85.7188C79.225 86.6198 79.3839 87.2708 79.7016 87.6719C80.0245 88.0729 80.5818 88.2734 81.3734 88.2734C82.1703 88.2734 82.7224 88.0286 83.0297 87.5391C83.2745 87.1536 83.574 86.9609 83.9281 86.9609H85.0922C85.2328 86.9609 85.3474 87.0078 85.4359 87.1016C85.5297 87.1901 85.5766 87.3021 85.5766 87.4375C85.5766 88.3333 85.1885 89.0104 84.4125 89.4688C83.6417 89.9271 82.5245 90.1562 81.0609 90.1562ZM89.9778 89.5234V79.2812C89.9778 79.1406 90.0221 79.026 90.1106 78.9375C90.2044 78.8438 90.319 78.7969 90.4544 78.7969H92.2044C92.3398 78.7969 92.4518 78.8438 92.5403 78.9375C92.6341 79.026 92.6809 79.1406 92.6809 79.2812V82.4141C93.5768 81.6589 94.5299 81.2812 95.5403 81.2812C96.5559 81.2812 97.3815 81.5911 98.0169 82.2109C98.6523 82.8255 98.97 83.7682 98.97 85.0391V89.5234C98.97 89.6589 98.9231 89.7734 98.8294 89.8672C98.7408 89.9557 98.6263 90 98.4856 90H96.7434C96.608 90 96.4934 89.9557 96.3997 89.8672C96.3111 89.7734 96.2669 89.6589 96.2669 89.5234V85.0391C96.2669 83.7943 95.7695 83.1719 94.7747 83.1719C94.1236 83.1719 93.4257 83.5443 92.6809 84.2891V89.5234C92.6809 89.6589 92.6341 89.7734 92.5403 89.8672C92.4518 89.9557 92.3398 90 92.2044 90H90.4544C90.319 90 90.2044 89.9557 90.1106 89.8672C90.0221 89.7734 89.9778 89.6589 89.9778 89.5234Z" fill="#F0E9D2"/>
<path d="M79.7266 36.7812C79.7266 40.349 79.7005 43.2917 79.6484 45.6094C79.6224 47.901 79.5052 50.2578 79.2969 52.6797C79.0885 55.0755 78.8672 56.9766 78.6328 58.3828C78.3984 59.7891 77.9557 61.2344 77.3047 62.7188C76.6797 64.1771 76.0547 65.2708 75.4297 66C74.8307 66.7031 73.9062 67.4323 72.6562 68.1875C71.4062 68.9427 70.1823 69.4505 68.9844 69.7109C67.7865 69.9714 66.1589 70.2318 64.1016 70.4922C62.0703 70.7526 60.0651 70.9089 58.0859 70.9609C56.1328 70.987 53.6458 71 50.625 71H36.4844V12.7969H56.6406C59.9219 12.7969 62.6953 12.9401 64.9609 13.2266C67.2266 13.487 69.2448 13.9948 71.0156 14.75C72.8125 15.4792 74.2448 16.4036 75.3125 17.5234C76.3802 18.6432 77.2526 20.1406 77.9297 22.0156C78.6328 23.8646 79.1016 25.9479 79.3359 28.2656C79.5964 30.5833 79.7266 33.4219 79.7266 36.7812ZM71.875 36.8984C71.875 34.5026 71.862 32.7839 71.8359 31.7422C71.8359 30.6745 71.7448 29.3464 71.5625 27.7578C71.4062 26.1693 71.1719 25.0885 70.8594 24.5156C70.5729 23.9167 70.1042 23.1615 69.4531 22.25C68.8021 21.3385 68.0339 20.7656 67.1484 20.5312C66.2891 20.2708 65.1432 19.9583 63.7109 19.5938C62.3047 19.2031 60.7292 18.9818 58.9844 18.9297C57.2396 18.8516 55.1172 18.8125 52.6172 18.8125H44.4141V65.0234H53.7891C56.0286 65.0234 57.7734 65.0104 59.0234 64.9844C60.2734 64.9323 61.6276 64.8151 63.0859 64.6328C64.5443 64.4505 65.612 64.2161 66.2891 63.9297C66.9922 63.6172 67.7474 63.1484 68.5547 62.5234C69.362 61.8724 69.9219 61.1432 70.2344 60.3359C70.5469 59.5026 70.8594 58.4219 71.1719 57.0938C71.4844 55.7396 71.6797 54.2552 71.7578 52.6406C71.8359 51.026 71.875 49.0729 71.875 46.7812V36.8984Z" fill="#F0E9D2"/>
</svg>
